<svg xmlns="http://www.w3.org/2000/svg" viewBox="0 0 800 600" role="img" aria-labelledby="t2">
  <title id="t2">Il·lustració abstracta — Lectura i coneixement</title>
  <rect width="800" height="600" fill="#FAFAFD"/>
  <g transform="translate(220,150)">
    <rect x="0" y="180" width="360" height="26" rx="4" fill="#1C0CBC" opacity="0.15"/>
    <rect x="10" y="60" width="46" height="150" fill="#1C0CBC"/>
    <rect x="64" y="90" width="46" height="120" fill="#E8600C"/>
    <rect x="118" y="40" width="46" height="170" fill="#9096A0" opacity="0.7"/>
    <rect x="172" y="75" width="46" height="135" fill="#1C0CBC" opacity="0.6"/>
    <rect x="226" y="20" width="46" height="190" fill="#E8600C" opacity="0.8"/>
    <rect x="280" y="100" width="46" height="110" fill="#9096A0" opacity="0.5"/>
  </g>
  <circle cx="620" cy="150" r="34" fill="none" stroke="#E8600C" stroke-width="4"/>
  <path d="M620 116 a34 34 0 0 0 0 68 a24 24 0 0 1 0 -68" fill="#E8600C" opacity="0.9"/>
  <path d="M140 470 c 40 -70 120 -70 160 0 c 40 -70 120 -70 160 0" stroke="#1C0CBC" stroke-width="4" fill="none" opacity="0.3"/>
  <circle cx="130" cy="120" r="8" fill="#1C0CBC" opacity="0.4"/>
  <circle cx="670" cy="420" r="10" fill="#E8600C" opacity="0.5"/>
</svg>
